<svg xmlns="http://www.w3.org/2000/svg" id="Layer_1" data-name="Layer 1" viewBox="0 0 1201.8 240.3"><defs><style>.cls-1{fill:#1a1a1a;}.cls-2{fill:#ff931e;}</style></defs><path class="cls-1" d="M769.6,648.8h30.1L737.2,837.7h-17L669.6,704.1,618.8,837.7h-17L539.3,648.8h30l42.3,131.9,50-135.6h15.7l50.3,135.6Z" transform="translate(-142.4 -645.1)"></path><path class="cls-1" d="M852.6,808.1h92.3V835H823.6V648.8h29Z" transform="translate(-142.4 -645.1)"></path><path class="cls-1" d="M970.5,835V648.8h29V835Z" transform="translate(-142.4 -645.1)"></path><path class="cls-1" d="M1109.8,809.5a39.7,39.7,0,0,0,11.1-4.8,23.8,23.8,0,0,0,7.8-8,21.1,21.1,0,0,0,3-11.4,20.7,20.7,0,0,0-3.5-12,32.2,32.2,0,0,0-9.4-8.9,80.4,80.4,0,0,0-14.4-7.2c-5.6-2.2-11.6-4.4-18-6.5-7.9-2.7-15.3-5.5-22-8.4a69.5,69.5,0,0,1-17.5-10.5,44.8,44.8,0,0,1-11.4-14.6c-2.7-5.7-4.1-12.7-4.1-21.1a46.6,46.6,0,0,1,3.7-18.2,44,44,0,0,1,11.6-15.9,61.7,61.7,0,0,1,19.7-11.5c7.8-2.9,17.1-4.4,27.8-4.4a71.8,71.8,0,0,1,22.3,3.5,66.9,66.9,0,0,1,19.2,9.8,59.7,59.7,0,0,1,14.3,15.7,58.5,58.5,0,0,1,8,21h-28.7a28.2,28.2,0,0,0-12.1-17.4c-6.3-4.1-14-6.2-23-6.2a49.8,49.8,0,0,0-15.3,2,32,32,0,0,0-10.8,5.3,20.6,20.6,0,0,0-6.3,7.6,20,20,0,0,0-2,8.5,19.4,19.4,0,0,0,3,10.9,28.6,28.6,0,0,0,7.9,8,57.5,57.5,0,0,0,11.9,6c4.5,1.6,9.3,3.4,14.5,5.1,9.2,3.2,17.7,6.5,25.4,9.7a88.1,88.1,0,0,1,19.9,11.5,46.9,46.9,0,0,1,13.1,15.4c3.1,6,4.6,13,4.6,21.2s-1.7,16.3-5.3,23a50.5,50.5,0,0,1-14.1,16.7,61.9,61.9,0,0,1-20.3,10.4,80.5,80.5,0,0,1-23.9,3.6c-18.6,0-33.8-4.4-45.7-13.3s-19.3-21.2-22.3-37h28.7q5.5,24,40.1,24A51.6,51.6,0,0,0,1109.8,809.5Z" transform="translate(-142.4 -645.1)"></path><path class="cls-1" d="M1315.2,835V751.7h-97.1V835h-29V648.8h29v76.1h97.1V648.8h29V835Z" transform="translate(-142.4 -645.1)"></path><path class="cls-2" d="M341.7,794.9c3.2,5.3,5.8,9.9,8.8,14.3,5.9,8.6,13.8,15.1,22.4,20.9l1.5.9c5.9,4,5.6,3.9,3,10.5-4.2,10.2-11.1,18.3-18,26.7a113.6,113.6,0,0,1-17.5,17.1,67.4,67.4,0,0,1-6.2-4.7,122.3,122.3,0,0,1-27-33.7l-1-2.1c-3.6-10.2-6.4-8.2,4.2-15s20.5-17.1,26.4-29.5A42.8,42.8,0,0,1,341.7,794.9Z" transform="translate(-142.4 -645.1)"></path><path class="cls-1" d="M404.8,732.4c11.1,10.1,23.9,12.8,37.3,5.7s17.5-19.2,15.4-33.7c13.3,3.1,25.4,17.1,27.3,31.6,2.7,21.9-9.3,36.9-24.7,43.6-18.1,7.8-37.1,1.9-49.1-12.4C402.8,757.4,399.6,740.1,404.8,732.4Z" transform="translate(-142.4 -645.1)"></path><path class="cls-2" d="M443.7,646.6c-53.9,0-97.5,42.9-97.5,95.8s43.6,95.8,97.5,95.8,97.6-42.9,97.6-95.8S497.6,646.6,443.7,646.6Zm0,167c-40,0-72.5-31.9-72.5-71.2s32.5-71.2,72.5-71.2,72.5,31.9,72.5,71.2S483.8,813.6,443.7,813.6Z" transform="translate(-142.4 -645.1)"></path><path class="cls-1" d="M201,732.4c11.1,10.1,23.9,12.8,37.3,5.7s17.5-19.2,15.4-33.7c13.3,3.1,25.5,17.1,27.3,31.6,2.7,21.9-9.3,36.9-24.7,43.6-18.1,7.8-37.1,1.9-49.1-12.4C199,757.4,195.8,740.1,201,732.4Z" transform="translate(-142.4 -645.1)"></path><path class="cls-2" d="M239.9,646.6c-53.9,0-97.5,42.9-97.5,95.8s43.6,95.8,97.5,95.8,97.6-42.9,97.6-95.8S293.8,646.6,239.9,646.6Zm0,167c-40,0-72.5-31.9-72.5-71.2s32.5-71.2,72.5-71.2,72.5,31.9,72.5,71.2S280,813.6,239.9,813.6Z" transform="translate(-142.4 -645.1)"></path></svg>